<svg viewBox="0 0 24 24" fill="none" xmlns="http://www.w3.org/2000/svg">
<path fill-rule="evenodd" clip-rule="evenodd" d="M17.49 3.64368C15.4112 2.2724 12.8947 1.73092 10.4369 2.12603C8.85332 2.37574 7.35315 3.00373 6.06331 3.95688C4.77347 4.91002 3.73191 6.16026 3.02677 7.60179C2.16479 9.3685 1.83493 11.3482 2.07746 13.2994C2.24705 14.6457 2.69079 15.9427 3.38121 17.1102C4.07163 18.2778 4.99403 19.291 6.09131 20.0872C7.1661 20.866 8.38411 21.4243 9.67522 21.7299C10.9663 22.0354 12.3051 22.0823 13.6143 21.8677C14.9236 21.6532 16.1776 21.1815 17.3041 20.4797C18.4305 19.778 19.4073 18.8601 20.1781 17.7788C21.0175 16.5992 21.5862 15.2484 21.8435 13.823C22.1008 12.3976 22.0403 10.9329 21.6664 9.53369C21.0588 7.11647 19.5687 5.01496 17.49 3.64368ZM10.4414 6.31496C10.5255 6.1307 10.6095 5.94646 10.6935 5.76222L10.6942 5.76079C10.7882 5.56919 10.9222 5.40006 11.0872 5.26487C11.2522 5.12969 11.4443 5.03162 11.6505 4.97731C11.8567 4.923 12.0721 4.91372 12.2822 4.9501C12.4923 4.98648 12.6921 5.06767 12.868 5.18816C13.1939 5.48926 13.4359 5.87015 13.57 6.29334C13.9251 7.11202 14.2983 7.92311 14.6714 8.73421C15.3169 10.1371 15.9623 11.54 16.5145 12.9823C16.6946 13.4018 16.8899 13.8145 17.0851 14.227C17.3896 14.8704 17.6938 15.5132 17.9399 16.1805C17.963 16.3784 17.929 16.5788 17.8418 16.7579C17.7546 16.937 17.618 17.0873 17.4481 17.191C17.3807 17.2321 17.3092 17.2652 17.2351 17.2899C17.1216 17.3279 17.0019 17.3463 16.881 17.3435C16.6821 17.339 16.4886 17.2774 16.3236 17.1661C15.7114 16.8216 15.097 16.4805 14.4825 16.1393C13.0899 15.3661 11.6971 14.5927 10.3296 13.7797L10.333 13.7797L10.3318 13.779C10.8968 13.7813 11.4619 13.7809 12.0269 13.7805C12.897 13.7798 13.7669 13.7792 14.6363 13.7883C14.3863 13.0686 14.0785 12.3703 13.7159 11.7004C13.5018 11.1905 13.2835 10.6826 13.0653 10.1748C12.7146 9.35857 12.3639 8.54254 12.0309 7.71864C11.7252 8.19329 11.478 8.70324 11.2947 9.23736C10.8565 10.3112 10.3755 11.3654 9.89456 12.4195C9.35541 13.6011 8.81638 14.7825 8.33807 15.9908C8.28912 16.0937 8.24603 16.2036 8.20253 16.3145C8.06751 16.6588 7.92854 17.0132 7.5982 17.2005C7.53381 17.2387 7.46567 17.2698 7.395 17.2932C7.32216 17.3175 7.24662 17.3336 7.16975 17.3412C7.01913 17.3561 6.86708 17.3377 6.72433 17.2873C6.58158 17.237 6.45161 17.1558 6.34359 17.0497C6.23558 16.9435 6.15214 16.8149 6.09918 16.6729C5.95736 16.3135 6.12216 15.9633 6.27698 15.6343C6.31024 15.5636 6.34305 15.4939 6.37225 15.4253C6.52086 15.0971 6.67345 14.7709 6.82597 14.4449C7.24789 13.5429 7.66926 12.6422 8.00424 11.7032C8.26479 11.1175 8.52714 10.5325 8.79069 9.94805C9.20931 9.01876 9.63136 8.09151 10.054 7.16452C10.1831 6.88129 10.3123 6.59811 10.4414 6.31496Z" fill="#FEFEFE"/>
</svg>
