<svg viewBox="0 0 24 24" fill="none" xmlns="http://www.w3.org/2000/svg">
<path d="M5.69156 3C4.40271 3 3.44919 4.12853 3.49185 5.35235C3.53275 6.52796 3.47959 8.05081 3.09629 9.2925C2.71185 10.538 2.06191 11.3253 1 11.4265V12.5735C2.06187 12.6747 2.71185 13.462 3.09629 14.7075C3.47959 15.9492 3.53275 17.472 3.49181 18.6477C3.44919 19.8715 4.40271 21 5.69156 21H18.8983C20.1872 21 21.1407 19.8715 21.0981 18.6477C21.0571 17.472 21.1103 15.9492 21.4935 14.7075C21.878 13.462 22.5264 12.6747 23.5882 12.5735V11.4265C22.5264 11.3253 21.878 10.538 21.4935 9.2925C21.1103 8.05081 21.0571 6.52796 21.0981 5.35235C21.1407 4.12853 20.1872 3 18.8983 3H5.69156ZM16.128 14.078C16.128 15.7632 14.8706 16.7849 12.784 16.7849H8.93681C8.91341 16.7849 8.89096 16.7756 8.87442 16.759C8.85787 16.7425 8.84857 16.72 8.84857 16.6966V7.29957C8.84857 7.27617 8.85787 7.25373 8.87442 7.23718C8.89096 7.22063 8.91341 7.21134 8.93681 7.21134H12.7636C14.5035 7.21134 15.6454 8.15343 15.6454 9.59978C15.6454 10.6148 14.8774 11.5238 13.8986 11.683V11.736C15.2308 11.882 16.128 12.8042 16.128 14.078ZM12.3965 8.42546H10.3711V11.2849H12.0771C13.3956 11.2849 14.1229 10.7542 14.1229 9.80541C14.1229 8.9164 13.4976 8.42546 12.3965 8.42546ZM10.3711 12.4194V15.5708H12.4713C13.8442 15.5708 14.5715 15.0201 14.5715 13.9852C14.5715 12.9502 13.8239 12.4194 12.3829 12.4194H10.3711Z" fill="white"/>
</svg>
