<svg viewBox="0 0 24 24" fill="none" xmlns="http://www.w3.org/2000/svg">
<path fill-rule="evenodd" clip-rule="evenodd" d="M20.8654 7.16299C20.872 7.18753 20.8754 7.21282 20.8754 7.23823V11.1882C20.8754 11.2389 20.8621 11.2887 20.8367 11.3325C20.8112 11.3764 20.7747 11.4128 20.7307 11.438L17.4155 13.3467V17.13C17.4155 17.2329 17.3608 17.328 17.2715 17.3798L10.3512 21.3636C10.3354 21.3726 10.3181 21.3783 10.3008 21.3844C10.2943 21.3866 10.2882 21.3906 10.2814 21.3924C10.233 21.4051 10.1821 21.4051 10.1338 21.3924C10.1258 21.3902 10.1186 21.3859 10.1111 21.383C10.0952 21.3772 10.0787 21.3722 10.0636 21.3636L3.14472 17.3798C3.10077 17.3545 3.06425 17.3182 3.03884 17.2743C3.01343 17.2304 3.00003 17.1806 3 17.13V5.28019C3 5.25427 3.0036 5.22907 3.01008 5.20459C3.01224 5.19631 3.01728 5.18875 3.02016 5.18047C3.02556 5.16535 3.0306 5.14987 3.03852 5.13583C3.04392 5.12647 3.05184 5.11891 3.05832 5.11027C3.0666 5.09875 3.07416 5.08687 3.08388 5.07679C3.09216 5.06851 3.10296 5.06239 3.11232 5.05519C3.12276 5.04655 3.13212 5.03719 3.144 5.03035L6.60396 3.03847C6.64777 3.01327 6.69742 3 6.74796 3C6.7985 3 6.84815 3.01327 6.89196 3.03847L10.3516 5.03035H10.3523C10.3638 5.03755 10.3735 5.04655 10.384 5.05483C10.3933 5.06203 10.4038 5.06851 10.412 5.07643C10.4221 5.08687 10.4293 5.09875 10.438 5.11027C10.4441 5.11891 10.4524 5.12647 10.4574 5.13583C10.4657 5.15023 10.4704 5.16535 10.4761 5.18047C10.479 5.18875 10.484 5.19631 10.4862 5.20495C10.4928 5.22949 10.4962 5.25478 10.4963 5.28019V12.6814L13.3792 11.0215V7.23787C13.3792 7.21267 13.3828 7.18711 13.3892 7.16299C13.3918 7.15435 13.3964 7.14679 13.3993 7.13851C13.4051 7.12339 13.4101 7.10791 13.418 7.09387C13.4234 7.08451 13.4314 7.07695 13.4375 7.06831C13.4461 7.05679 13.4533 7.04491 13.4634 7.03483C13.4717 7.02655 13.4821 7.02043 13.4915 7.01323C13.5023 7.00459 13.5116 6.99523 13.5232 6.98839L16.9835 4.99651C17.0273 4.97127 17.0769 4.95798 17.1275 4.95798C17.178 4.95798 17.2277 4.97127 17.2715 4.99651L20.7311 6.98839C20.7433 6.99559 20.7527 7.00459 20.7635 7.01287C20.7725 7.02007 20.7829 7.02655 20.7912 7.03447C20.8013 7.04491 20.8085 7.05679 20.8171 7.06831C20.8236 7.07695 20.8315 7.08451 20.8366 7.09387C20.8448 7.10791 20.8495 7.12339 20.8553 7.13851C20.8585 7.14679 20.8632 7.15435 20.8654 7.16299ZM20.2987 11.0215V7.73683L19.088 8.43379L17.4155 9.39679V12.6814L20.2991 11.0215H20.2987ZM16.8391 16.9633V13.6765L15.1939 14.6161L10.4959 17.2974V20.6151L16.8391 16.9633ZM3.57672 5.77879V16.9633L9.9192 20.6148V17.2977L6.60576 15.4225L6.60468 15.4218L6.60324 15.421C6.59208 15.4146 6.58272 15.4052 6.57228 15.3973C6.56328 15.3901 6.55284 15.3843 6.54492 15.3764L6.5442 15.3753C6.53484 15.3663 6.52836 15.3552 6.52044 15.3451C6.51324 15.3354 6.5046 15.3271 6.49884 15.317L6.49848 15.3159C6.492 15.3051 6.48804 15.2922 6.48336 15.2799C6.47868 15.2691 6.47256 15.259 6.46968 15.2475C6.46608 15.2338 6.46536 15.2191 6.46392 15.205C6.46248 15.1942 6.4596 15.1834 6.4596 15.1726V15.1719V7.43875L4.7874 6.47539L3.57672 5.77879ZM6.74832 3.62095L3.8658 5.28019L6.7476 6.93943L9.62976 5.27983L6.7476 3.62095H6.74832ZM8.24736 13.976L9.91956 13.0134V5.77879L8.70888 6.47575L7.03632 7.43875V14.6733L8.24736 13.976ZM17.1275 5.57899L14.2453 7.23823L17.1275 8.89747L20.0093 7.23787L17.1275 5.57899ZM16.8391 9.39679L15.1666 8.43379L13.9559 7.73683V11.0215L15.6281 11.9841L16.8391 12.6814V9.39679ZM10.2072 16.7988L14.4347 14.3853L16.5479 13.1793L13.6679 11.5212L10.3519 13.4302L7.32972 15.1701L10.2072 16.7988Z" fill="white"/>
</svg>
