<svg viewBox="0 0 24 24" fill="none" xmlns="http://www.w3.org/2000/svg">
<path d="M13.4065 4.22914C12.5671 3.23322 11.8442 2.22175 11.6966 2.01167C11.681 1.99611 11.6577 1.99611 11.6422 2.01167C11.4945 2.22175 10.7717 3.23322 9.93228 4.22914C2.72748 13.418 11.067 19.6191 11.067 19.6191L11.137 19.6658C11.1991 20.6228 11.3546 22 11.3546 22H11.6655H11.9764C11.9764 22 12.1318 20.6306 12.194 19.6658L12.2639 19.6114C12.2717 19.6191 20.6113 13.418 13.4065 4.22914ZM11.6655 19.4791C11.6655 19.4791 11.2924 19.1601 11.1914 18.9967V18.9811L11.6422 8.9753C11.6422 8.94417 11.6888 8.94417 11.6888 8.9753L12.1396 18.9811V18.9967C12.0385 19.1601 11.6655 19.4791 11.6655 19.4791Z" fill="white"/>
</svg>
