<svg viewBox="0 0 24 24" fill="none" xmlns="http://www.w3.org/2000/svg">
<path fill-rule="evenodd" clip-rule="evenodd" d="M15.113 3.016C14.7762 3.04599 14.2982 3.1302 13.8976 3.23008L13.4528 3.34094L13.1424 3.29025C11.864 3.08143 10.7397 3.23595 9.97259 3.72588L9.82597 3.81953L9.46144 3.7028C8.98798 3.55117 8.54548 3.44339 7.9836 3.34287C7.58238 3.27108 7.44587 3.26138 6.80537 3.25926C6.22211 3.25734 6.02768 3.26771 5.8074 3.31243C4.57103 3.56349 3.76704 4.19597 3.33397 5.25821C3.09501 5.84429 3.00156 6.41865 3.00001 7.31032C2.99863 8.1177 3.09922 8.77766 3.44718 10.2438C3.85167 11.9483 4.29505 13.2848 4.80039 14.3233C5.10311 14.9453 5.36101 15.3349 5.67789 15.6488C6.08094 16.0481 6.46059 16.1869 6.86563 16.0831C7.2167 15.9932 7.39087 15.8513 7.94761 15.2018C8.40835 14.6643 9.0294 13.9673 9.09929 13.9093C9.13686 13.8781 9.1846 13.8867 9.35488 13.955C9.61253 14.0584 9.86295 14.1203 10.0293 14.1218C10.0985 14.1224 10.1643 14.132 10.1754 14.1432C10.1978 14.1655 10.0397 14.3737 9.84542 14.5779C9.69645 14.7344 9.55098 14.7935 8.95395 14.9399C8.24728 15.1133 8.03844 15.258 8.03844 15.5743C8.03844 15.908 8.38158 16.1627 9.02381 16.3058C9.3866 16.3866 10.0784 16.3765 10.3962 16.2856C10.7133 16.195 10.9799 16.0669 11.2041 15.8972L11.3831 15.7619L11.4027 16.7997C11.4332 18.4126 11.5118 19.218 11.6798 19.6408C11.9568 20.3376 12.421 20.8024 12.9873 20.95C13.3694 21.0495 14.0337 20.9969 14.5652 20.8251C15.0203 20.678 15.3048 20.5143 15.5772 20.2428C16.1334 19.6885 16.2297 19.3098 16.614 16.1674C16.6496 15.8762 16.6895 15.6205 16.7026 15.5993C16.7214 15.569 16.8001 15.568 17.0757 15.5946C17.8405 15.6687 18.7084 15.5248 19.3054 15.225C19.791 14.9811 20.109 14.733 20.2813 14.4636C20.4062 14.2683 20.4062 14.0322 20.2813 13.9073C20.1192 13.7451 19.9893 13.7333 19.411 13.8279C18.5602 13.967 18.0958 13.9661 17.7847 13.8249L17.6603 13.7684L17.8019 13.5526C18.5652 12.3894 19.3857 10.5936 19.797 9.18566C20.1406 8.00931 20.2822 7.18125 20.2835 6.33929C20.285 5.45511 20.1669 5.12474 19.6573 4.58701C18.7912 3.67307 17.8398 3.20404 16.5168 3.03876C16.2004 2.99924 15.4395 2.98691 15.113 3.016ZM16.2999 3.552C17.1891 3.63506 17.8695 3.86567 18.5502 4.31473C18.8524 4.5141 19.4557 5.09832 19.5789 5.31096C19.704 5.52686 19.7591 5.84169 19.7587 6.33929C19.7573 8.00986 18.8961 10.639 17.6585 12.7511C17.3539 13.271 17.3365 13.2919 17.2863 13.1982C17.2553 13.1402 17.2616 13.1069 17.3263 12.9865C17.4445 12.7663 17.5597 12.4182 17.6103 12.1279C17.6729 11.7688 17.668 11.37 17.5918 10.6318C17.516 9.89717 17.5238 9.38561 17.6217 8.68208C17.657 8.42774 17.687 8.0671 17.6882 7.8806C17.6909 7.4781 17.6301 7.25818 17.36 6.6938C16.7703 5.46172 15.8178 4.44077 14.7109 3.85421C14.5059 3.7456 14.4014 3.67451 14.4302 3.66344C14.4855 3.64222 15.1183 3.55335 15.3134 3.53938C15.632 3.51659 15.9664 3.52086 16.2999 3.552ZM13.0711 3.8091C14.5682 4.08126 15.9346 5.12815 16.7557 6.63212C16.879 6.85802 17.1013 7.35315 17.1013 7.40198C17.1013 7.41546 16.869 7.43293 16.585 7.44083C16.1332 7.45335 16.0373 7.46539 15.8179 7.53705C15.5052 7.63924 15.2574 7.81819 15.0979 8.05706C14.929 8.31001 14.8731 8.52342 14.8735 8.91327C14.8744 9.69042 15.1735 10.5175 15.9975 12.0213C16.1491 12.2981 16.3002 12.5877 16.3333 12.6648C16.4045 12.8309 16.6833 13.2648 16.8791 13.5144C16.9558 13.6121 17.0128 13.6963 17.0059 13.7016C16.9991 13.7069 16.9279 13.7355 16.8479 13.7652C16.7678 13.7948 16.6345 13.8801 16.5515 13.9547C16.3419 14.1431 16.2677 14.3297 16.2332 14.7548C16.1686 15.553 16.0306 16.6504 15.9754 16.8068C15.9488 16.882 15.9149 17.0684 15.9001 17.2209C15.8853 17.3735 15.8451 17.6232 15.8109 17.7758C15.7767 17.9284 15.7265 18.2267 15.6995 18.4386C15.6725 18.6505 15.6288 18.9002 15.6024 18.9935C15.4586 19.5023 15.1124 19.9122 14.6271 20.1483C14.2348 20.3391 13.8076 20.4481 13.432 20.4533C13.1582 20.4571 13.1242 20.4505 12.933 20.3563C12.7619 20.2721 12.7075 20.225 12.6062 20.0732C12.4811 19.8859 12.3357 19.5231 12.2227 19.1167C12.1634 18.9032 12.158 18.7959 12.1524 17.7142C12.1459 16.4798 12.1172 16.1271 11.9839 15.6408C11.9373 15.4709 11.9225 15.3208 11.9225 15.0183C11.9225 14.6627 11.9137 14.5958 11.8405 14.3984C11.687 13.9843 11.3292 13.7222 10.9175 13.7222C10.755 13.7222 10.748 13.7189 10.7681 13.6528C10.8391 13.4187 11.083 12.7789 11.2261 12.4506C11.5364 11.7393 11.6429 11.2867 11.6668 10.5779C11.6928 9.80577 11.5358 8.69685 11.3418 8.28234C11.1751 7.926 10.8697 7.66922 10.4937 7.56909C10.0217 7.44343 9.2437 7.57393 8.60323 7.88626C8.47818 7.94722 8.37079 7.99172 8.36456 7.98511C8.34238 7.96154 8.44258 7.289 8.5195 6.94509C8.6747 6.25132 8.9831 5.50227 9.29568 5.05999C9.4452 4.84845 9.8486 4.41265 9.8949 4.41265C9.90992 4.41265 10.0012 4.35906 10.0978 4.29357C10.4808 4.03377 10.9297 3.85581 11.3934 3.77998C11.7383 3.72357 12.6916 3.74011 13.0711 3.8091ZM7.89971 3.88432C8.47545 3.98703 9.3023 4.2012 9.3023 4.24769C9.3023 4.25758 9.22694 4.34706 9.13487 4.44652C8.55183 5.0763 8.11526 6.12662 7.91255 7.38737C7.84831 7.78702 7.84291 7.92385 7.8399 9.23696C7.83759 10.2444 7.82461 10.7397 7.79511 10.9478C7.66084 11.8948 7.91888 12.734 8.54143 13.3749L8.69817 13.5363L8.62025 13.6215C8.26679 14.0088 7.91997 14.402 7.57994 14.8011C7.1462 15.3111 7.02497 15.4294 6.85163 15.5118C6.58429 15.6388 6.32436 15.5572 6.01798 15.2499C5.22116 14.4509 4.33454 12.0542 3.73651 9.08282C3.55004 8.15626 3.49447 7.65295 3.51868 7.10995C3.56902 5.98055 3.7882 5.30649 4.30458 4.6929C4.66086 4.26952 5.32174 3.9424 6.05076 3.82852C6.36013 3.7802 7.51062 3.81494 7.89971 3.88432ZM17.1598 7.97108C17.1865 7.98761 17.1534 8.37374 17.073 8.98381C16.993 9.59089 16.9928 9.80978 17.072 10.537C17.1815 11.542 17.1532 12.0984 16.9712 12.5191L16.9108 12.6587L16.8177 12.4737C16.7665 12.372 16.5665 11.9949 16.3732 11.6358C15.7012 10.3871 15.4249 9.65552 15.3844 9.01791C15.3345 8.23264 15.7656 7.90311 16.7888 7.94424C16.9815 7.95201 17.1484 7.96408 17.1598 7.97108ZM10.3274 8.062C10.7754 8.16743 10.9181 8.39557 11.0573 9.22887C11.2001 10.0831 11.1946 10.8265 11.041 11.4402C10.9966 11.6177 10.8568 12.0056 10.7304 12.3022C10.604 12.5988 10.4432 13.0118 10.3729 13.2201L10.2453 13.5989H10.1452C9.84324 13.5989 9.34702 13.3978 9.04802 13.1542C8.72828 12.8937 8.44383 12.437 8.33625 12.0113C8.25492 11.6895 8.24725 11.451 8.30343 10.9941C8.34244 10.6766 8.35721 10.308 8.3593 9.60026C8.36167 8.78822 8.36931 8.63104 8.40835 8.59289C8.48014 8.52274 8.89359 8.30863 9.13275 8.21774C9.39062 8.11973 9.8189 8.02431 10.0113 8.02196C10.0876 8.02103 10.2299 8.03904 10.3274 8.062ZM16.0697 8.24953C15.9774 8.27428 15.8881 8.32375 15.8447 8.37416C15.7804 8.44893 15.7774 8.4647 15.816 8.52367C15.9582 8.74074 16.2615 8.79403 16.475 8.63945C16.6018 8.54753 16.6896 8.39304 16.6596 8.31464C16.6397 8.26301 16.4509 8.20371 16.3153 8.20654C16.2644 8.20757 16.1539 8.22692 16.0697 8.24953ZM9.81865 8.41259C9.72329 8.47173 9.71302 8.53693 9.779 8.66452C9.9236 8.94416 10.2836 9.03929 10.5461 8.86723C10.6986 8.76732 10.7375 8.59636 10.6299 8.49895C10.4759 8.35962 9.98791 8.30767 9.81865 8.41259ZM17.4035 14.2318C17.4662 14.2747 17.6146 14.3406 17.7333 14.3782C17.9242 14.4387 18.0131 14.4464 18.5039 14.4447C18.893 14.4434 19.1451 14.4268 19.3475 14.3892C19.5063 14.3597 19.6417 14.3411 19.6485 14.3478C19.6665 14.3658 19.3362 14.5899 19.105 14.7165C18.6667 14.9567 17.9707 15.0958 17.3325 15.0709C17.0926 15.0615 16.922 15.0392 16.847 15.0074C16.7401 14.9621 16.7314 14.9488 16.7314 14.8317C16.7314 14.5047 16.8437 14.3169 17.1013 14.2131C17.2799 14.1411 17.2703 14.1405 17.4035 14.2318ZM11.0441 14.2462C11.1123 14.2462 11.2738 14.4 11.3382 14.5263C11.3714 14.5913 11.3985 14.7062 11.3985 14.7817C11.3985 14.8944 11.3772 14.9457 11.279 15.07C11.0051 15.4165 10.6212 15.6672 10.1963 15.777C9.82593 15.8728 9.15124 15.8253 8.7818 15.6775C8.56378 15.5902 8.57167 15.586 9.27147 15.4173C9.94443 15.2551 10.11 15.1445 10.5949 14.5335C10.7914 14.2859 10.8899 14.2047 10.9617 14.2311C10.9843 14.2394 11.0214 14.2462 11.0441 14.2462Z" fill="white"/>
</svg>
