<svg viewBox="0 0 24 24" xmlns="http://www.w3.org/2000/svg">
<path d="M19.2627 5.16418L9.41193 15.8209L21.8 10.1194C21.4328 8.22986 20.5373 6.53732 19.2716 5.19404" fill="white"/>
<path d="M11.8 2C10.4358 2 9.13436 2.27403 7.94928 2.76716L6.62689 13.9015L13.2239 2.11045C12.7553 2.04269 12.2776 2.00657 11.7911 2.00657" fill="white"/>
<path d="M21.9492 10.7164L10.2179 17.2836L21.2328 15.9761C21.7552 14.7612 22.0448 13.4269 22.0448 12.0358C22.0448 11.594 22.0134 11.1582 21.9585 10.7314" fill="white"/>
<path d="M17.4717 20.3283C18.7821 19.4418 19.8717 18.2507 20.6359 16.8657L10.3075 18.9134L17.4717 20.3283Z" fill="white"/>
<path d="M13.8895 2.20746L8.1582 14.6552L18.8149 4.80447C17.4806 3.52089 15.8 2.60149 13.9194 2.21044" fill="white"/>
<path d="M12.6955 22C13.806 21.9077 14.8627 21.6388 15.8299 21.2119L10.0388 20.5254L12.6955 22Z" fill="white"/>
<path d="M2.84478 7.91046C2.39403 8.90748 2.10149 9.99404 2 11.1343L3.55523 13.9164L2.84478 7.91046Z" fill="white"/>
<path d="M7.32238 3.17911C5.90745 3.93732 4.6985 5.0209 3.79999 6.34329L5.25372 13.6567L7.32238 3.17911Z" fill="white"/>
</svg>
