<svg viewBox="0 0 24 24" fill="none" xmlns="http://www.w3.org/2000/svg">
<path fill-rule="evenodd" clip-rule="evenodd" d="M11.6634 3.80097C14.0502 2.28031 17.3514 2.98937 19.0228 5.38157H19.0236C19.4202 5.93675 19.702 6.56556 19.8523 7.23111C20.0026 7.89666 20.0185 8.58554 19.899 9.2573C19.7831 9.89875 19.5385 10.5101 19.1799 11.0544C19.7031 12.0526 19.8784 13.1968 19.6781 14.3059C19.5601 14.9644 19.3059 15.5911 18.9318 16.1457C18.5577 16.7004 18.0719 17.1709 17.5056 17.5271L13.3138 20.1987C10.9274 21.7199 7.62602 21.0107 5.95462 18.6181C5.55805 18.0629 5.27633 17.4341 5.12598 16.7686C4.97564 16.103 4.95968 15.4142 5.07906 14.7424C5.19494 14.1008 5.43971 13.4894 5.79857 12.9452C5.27494 11.9471 5.09917 10.803 5.29907 9.6938C5.41731 9.03521 5.67169 8.40856 6.04595 7.8539C6.4202 7.29924 6.90609 6.82879 7.47254 6.47264L11.6634 3.80097ZM9.25879 18.7428C9.89788 18.9797 10.5943 19.0148 11.2539 18.8433C11.5553 18.7627 11.8426 18.6365 12.1057 18.469L16.2979 15.7983C16.6384 15.584 16.9305 15.301 17.1555 14.9675C17.3805 14.6339 17.5334 14.2571 17.6045 13.8611C17.6763 13.4571 17.6667 13.0429 17.5762 12.6428C17.4858 12.2426 17.3163 11.8645 17.0778 11.5307C16.6894 10.9707 16.1384 10.5434 15.4993 10.3065C14.8602 10.0696 14.1639 10.0345 13.5042 10.206C13.2028 10.2864 12.9156 10.4126 12.6525 10.5801L11.053 11.5994C10.9735 11.6497 10.8868 11.6876 10.7959 11.7119C10.5971 11.7634 10.3872 11.7527 10.1947 11.6813C10.0021 11.6098 9.83615 11.481 9.71914 11.3122C9.64736 11.2115 9.59637 11.0974 9.56916 10.9768C9.54196 10.8562 9.53907 10.7313 9.56067 10.6095C9.5821 10.4903 9.62817 10.3768 9.69594 10.2763C9.76371 10.1759 9.85169 10.0907 9.95426 10.0261L14.1471 7.35399C14.2266 7.30361 14.3133 7.26567 14.4042 7.24149C14.603 7.1898 14.8128 7.20039 15.0054 7.27181C15.198 7.34323 15.364 7.47205 15.481 7.64086C15.609 7.82218 15.6689 8.04292 15.6501 8.2641L15.6356 8.41967L15.7915 8.46692C16.3806 8.64478 16.935 8.92198 17.4307 9.28655L17.6455 9.44389L17.7244 9.20282C17.7666 9.07481 17.8002 8.94406 17.8246 8.81149C17.8964 8.40756 17.8868 7.99337 17.7963 7.59321C17.7059 7.19306 17.5365 6.81498 17.298 6.48116C16.9095 5.92115 16.3585 5.49383 15.7194 5.25693C15.0803 5.02003 14.3839 4.98494 13.7242 5.15641C13.4229 5.23701 13.1356 5.36324 12.8725 5.53071L8.68029 8.20223C8.33957 8.41627 8.04727 8.69907 7.8221 9.03253C7.59692 9.366 7.44381 9.74279 7.37258 10.1388C7.30079 10.5427 7.3104 10.9569 7.40084 11.3571C7.49128 11.7573 7.66072 12.1353 7.89923 12.4691C8.28773 13.0292 8.83873 13.4565 9.47782 13.6934C10.1169 13.9303 10.8133 13.9654 11.473 13.7939C11.7743 13.7134 12.0615 13.5873 12.3248 13.4201L13.9243 12.4003C14.0038 12.35 14.0905 12.312 14.1815 12.2878C14.3803 12.2363 14.5901 12.2469 14.7827 12.3184C14.9752 12.3899 15.1412 12.5187 15.2582 12.6875C15.33 12.7882 15.381 12.9022 15.4083 13.0228C15.4356 13.1434 15.4385 13.2682 15.417 13.39C15.3955 13.5093 15.3493 13.6228 15.2815 13.7233C15.2137 13.8237 15.1257 13.909 15.0231 13.9736L10.8314 16.6456C10.7519 16.6959 10.6652 16.7339 10.5743 16.7581C10.3755 16.8098 10.1656 16.7992 9.97307 16.7278C9.7805 16.6563 9.6145 16.5275 9.49751 16.3587C9.36932 16.1776 9.30937 15.957 9.32828 15.7359L9.34259 15.5804L9.18686 15.5331C8.59776 15.3552 8.04338 15.078 7.54759 14.7135L7.33272 14.5558L7.25381 14.7969C7.21143 14.9249 7.17798 15.0556 7.15369 15.1882C7.08193 15.5921 7.09153 16.0063 7.18194 16.4065C7.27235 16.8066 7.44174 17.1847 7.68018 17.5185C8.06869 18.0786 8.61969 18.5059 9.25879 18.7428Z" fill="white"/>
</svg>
