<svg viewBox="0 0 24 24" fill="none" xmlns="http://www.w3.org/2000/svg">
    <path fill-rule="evenodd" clip-rule="evenodd"
        d="M2.65327 2.63977C2.7819 2.51596 2.96678 2.47013 3.13835 2.51952L20.9624 7.65118C21.1341 7.70062 21.2664 7.83796 21.3094 8.01143C21.3524 8.1849 21.2995 8.36812 21.1707 8.49201L7.79293 21.3604C7.66417 21.4842 7.47912 21.5299 7.30749 21.4803C7.13586 21.4308 7.00373 21.2933 6.96089 21.1199L2.5146 3.11991C2.47179 2.94658 2.52464 2.76358 2.65327 2.63977ZM3.69284 3.71978L7.72398 20.0391L19.8527 8.3723L3.69284 3.71978Z"
        fill="white" />
    <path fill-rule="evenodd" clip-rule="evenodd"
        d="M12.0475 5.08599C12.2192 5.13559 12.3514 5.27305 12.3942 5.44656L14.6157 14.4492C14.6585 14.6226 14.6056 14.8056 14.477 14.9293C14.3483 15.0531 14.1634 15.0989 13.9919 15.0495L5.08477 12.4828C4.9131 12.4334 4.78087 12.296 4.7379 12.1226C4.69492 11.9492 4.74774 11.7661 4.87645 11.6422L11.562 5.20614C11.6907 5.0822 11.8758 5.03639 12.0475 5.08599ZM6.19407 11.7618L13.4377 13.8491L11.631 6.52777L6.19407 11.7618Z"
        fill="white" />
    <path fill-rule="evenodd" clip-rule="evenodd"
        d="M8.24836 8.39102C8.37689 8.26725 8.56164 8.22134 8.73316 8.27058L13.1584 9.54089C13.3301 9.59019 13.4625 9.72741 13.5056 9.90081C13.5487 10.0742 13.496 10.2575 13.3674 10.3815L10.0456 13.5834C9.9169 13.7074 9.73175 13.7534 9.55999 13.7038C9.38823 13.6542 9.256 13.5167 9.21317 13.3432L8.10975 8.87094C8.06701 8.6977 8.11983 8.5148 8.24836 8.39102ZM9.28757 9.47012L9.97624 12.2613L12.0494 10.2629L9.28757 9.47012Z"
        fill="white" />
    <path fill-rule="evenodd" clip-rule="evenodd"
        d="M7.63 3.80401C7.80177 3.85357 7.934 3.99107 7.97682 4.16463L9.08024 8.63685C9.12298 8.8101 9.07016 8.99299 8.94163 9.11677C8.8131 9.24055 8.62835 9.28645 8.45684 9.23721L4.03164 7.9669C3.85989 7.9176 3.7275 7.78039 3.68438 7.60698C3.64125 7.43357 3.69395 7.25033 3.8226 7.12632L7.14438 3.92442C7.27309 3.80035 7.45824 3.75444 7.63 3.80401ZM5.14057 7.24485L7.90242 8.03767L7.21375 5.24648L5.14057 7.24485Z"
        fill="white" />
    <path fill-rule="evenodd" clip-rule="evenodd"
        d="M16.48 6.35338C16.6517 6.40295 16.784 6.54044 16.8268 6.71401L17.9302 11.1862C17.973 11.3595 17.9201 11.5424 17.7916 11.6661C17.6631 11.7899 17.4783 11.8358 17.3068 11.7866L12.8816 10.5163C12.7099 10.467 12.5775 10.3298 12.5344 10.1564C12.4912 9.98295 12.5439 9.79971 12.6726 9.6757L15.9944 6.47379C16.1231 6.34973 16.3082 6.30382 16.48 6.35338ZM13.9905 9.79423L16.7524 10.5871L16.0637 7.79585L13.9905 9.79423Z"
        fill="white" />
    <path fill-rule="evenodd" clip-rule="evenodd"
        d="M9.83774 12.7461C10.0095 12.7956 10.1417 12.9331 10.1846 13.1067L11.288 17.5789C11.3307 17.7522 11.2779 17.9351 11.1494 18.0588C11.0208 18.1826 10.8361 18.2285 10.6646 18.1793L6.23937 16.909C6.06762 16.8597 5.93523 16.7225 5.89211 16.5491C5.84899 16.3757 5.90168 16.1924 6.03033 16.0684L9.35211 12.8665C9.48082 12.7424 9.66598 12.6965 9.83774 12.7461ZM7.3483 16.1869L10.1102 16.9798L9.42149 14.1886L7.3483 16.1869Z"
        fill="white" />
</svg>