<svg viewBox="0 0 24 24" fill="none" xmlns="http://www.w3.org/2000/svg">
<path d="M18.9419 5.26946C17.6279 4.66787 16.2407 4.24108 14.8158 4C14.6208 4.34857 14.4443 4.70721 14.2872 5.0744C12.7694 4.84568 11.2258 4.84568 9.70801 5.0744C9.55079 4.70725 9.37437 4.34861 9.17946 4C7.75361 4.24312 6.3655 4.67092 5.05016 5.27261C2.43887 9.13606 1.73099 12.9036 2.08493 16.6176C3.61417 17.7474 5.32582 18.6067 7.14548 19.1581C7.55522 18.607 7.91778 18.0224 8.22933 17.4104C7.63759 17.1894 7.06646 16.9167 6.52255 16.5955C6.6657 16.4917 6.8057 16.3847 6.94099 16.2809C8.52364 17.0252 10.251 17.4111 12 17.4111C13.7489 17.4111 15.4763 17.0252 17.0589 16.2809C17.1958 16.3926 17.3358 16.4996 17.4774 16.5955C16.9324 16.9172 16.3602 17.1904 15.7675 17.412C16.0786 18.0236 16.4412 18.6078 16.8513 19.1581C18.6725 18.6089 20.3855 17.75 21.915 16.6191C22.3303 12.3121 21.2055 8.5792 18.9419 5.26946ZM8.67765 14.3335C7.69134 14.3335 6.87649 13.4384 6.87649 12.3372C6.87649 11.2361 7.66302 10.3332 8.6745 10.3332C9.68599 10.3332 10.4945 11.2361 10.4772 12.3372C10.4599 13.4384 9.68284 14.3335 8.67765 14.3335ZM15.3223 14.3335C14.3344 14.3335 13.5227 13.4384 13.5227 12.3372C13.5227 11.2361 14.3092 10.3332 15.3223 10.3332C16.3353 10.3332 17.1376 11.2361 17.1203 12.3372C17.103 13.4384 16.3275 14.3335 15.3223 14.3335Z" fill="white"/>
</svg>
