<svg viewBox="0 0 24 24" fill="none" xmlns="http://www.w3.org/2000/svg">
<path d="M16.98 3.495H6.97998L1.98248 12.0925L6.98248 20.69H16.9825L21.9825 12.0925L16.98 3.495ZM13.2225 16.455H11.745C11.625 16.455 11.5475 16.3575 11.5475 16.235V11.3575C11.5475 10.1325 11.14 9.8375 10.235 9.8375C9.78248 9.8375 9.28748 9.86 8.94498 9.9025V16.2375C8.94498 16.3575 8.85748 16.4575 8.73498 16.4575H7.26998C7.14998 16.4575 7.05998 16.36 7.05998 16.2375V9.0925C7.05998 8.6 7.19248 8.48 7.62248 8.415C8.20748 8.3275 9.46248 8.23 10.025 8.23C12.1625 8.23 13.43 8.82 13.43 11.36V16.24C13.4325 16.3575 13.345 16.455 13.2225 16.455ZM15.1175 16.2375V10.405C15.1175 10.285 15.2175 10.185 15.3375 10.185H16.6825C16.8025 10.185 16.9025 10.2825 16.9025 10.405V16.2375C16.9025 16.3575 16.8025 16.4575 16.6825 16.4575H15.3375C15.2175 16.455 15.1175 16.3575 15.1175 16.2375ZM15.075 9.255V8.2375C15.075 8.1175 15.175 8.0175 15.295 8.0175H16.7275C16.8475 8.0175 16.9475 8.115 16.9475 8.2375V9.255C16.9475 9.375 16.8475 9.475 16.7275 9.475H15.295C15.1725 9.475 15.075 9.3775 15.075 9.255Z" fill="white"/>
</svg>
